<?xml version="1.0" encoding="UTF-8" standalone="no"?>
<!DOCTYPE svg PUBLIC "-//W3C//DTD SVG 1.1//EN"
 "http://www.w3.org/Graphics/SVG/1.1/DTD/svg11.dtd">
<!-- Generated by graphviz version 10.0.1 (0)
 -->
<!-- Title: G Pages: 1 -->
<svg width="136pt" height="398pt"
 viewBox="0.00 0.00 135.75 398.00" xmlns="http://www.w3.org/2000/svg" xmlns:xlink="http://www.w3.org/1999/xlink">
<g id="graph0" class="graph" transform="scale(1 1) rotate(0) translate(4 394)">
<title>G</title>
<polygon fill="white" stroke="none" points="-4,4 -4,-394 131.75,-394 131.75,4 -4,4"/>
<!-- A -->
<g id="node1" class="node">
<title>A</title>
<ellipse fill="none" stroke="black" cx="79" cy="-372" rx="27" ry="18"/>
<text text-anchor="middle" x="79" y="-366.95" font-family="Times New Roman,serif" font-size="14.00">A</text>
</g>
<!-- B -->
<g id="node2" class="node">
<title>B</title>
<ellipse fill="none" stroke="black" cx="79" cy="-283.5" rx="27" ry="18"/>
<text text-anchor="middle" x="79" y="-278.45" font-family="Times New Roman,serif" font-size="14.00">B</text>
</g>
<!-- A&#45;&#45;B -->
<g id="edge1" class="edge">
<title>A&#45;&#45;B</title>
<path fill="none" stroke="black" d="M79,-353.91C79,-338.84 79,-316.99 79,-301.85"/>
<text text-anchor="middle" x="82.38" y="-322.7" font-family="Times New Roman,serif" font-size="14.00">4</text>
</g>
<!-- C -->
<g id="node3" class="node">
<title>C</title>
<ellipse fill="none" stroke="black" cx="79" cy="-195" rx="27" ry="18"/>
<text text-anchor="middle" x="79" y="-189.95" font-family="Times New Roman,serif" font-size="14.00">C</text>
</g>
<!-- A&#45;&#45;C -->
<g id="edge2" class="edge">
<title>A&#45;&#45;C</title>
<path fill="none" stroke="black" d="M89.92,-355.31C98.65,-341.76 110.18,-321.3 115,-301.5 118.79,-285.95 118.79,-281.05 115,-265.5 110.18,-245.7 98.65,-225.24 89.92,-211.69"/>
<text text-anchor="middle" x="121.38" y="-278.45" font-family="Times New Roman,serif" font-size="14.00">2</text>
</g>
<!-- D -->
<g id="node4" class="node">
<title>D</title>
<ellipse fill="none" stroke="black" cx="27" cy="-106.5" rx="27" ry="18"/>
<text text-anchor="middle" x="27" y="-101.45" font-family="Times New Roman,serif" font-size="14.00">D</text>
</g>
<!-- A&#45;&#45;D -->
<g id="edge3" class="edge">
<title>A&#45;&#45;D</title>
<path fill="none" stroke="black" d="M69.08,-355.01C60.98,-341.28 49.78,-320.72 43,-301.5 21.71,-241.19 24.18,-222.94 23,-159 22.86,-151.67 22.58,-149.82 23,-142.5 23.33,-136.76 23.95,-130.52 24.61,-124.91"/>
<text text-anchor="middle" x="31.38" y="-234.2" font-family="Times New Roman,serif" font-size="14.00">5</text>
</g>
<!-- B&#45;&#45;C -->
<g id="edge4" class="edge">
<title>B&#45;&#45;C</title>
<path fill="none" stroke="black" d="M79,-265.41C79,-250.34 79,-228.49 79,-213.35"/>
<text text-anchor="middle" x="82.38" y="-234.2" font-family="Times New Roman,serif" font-size="14.00">6</text>
</g>
<!-- B&#45;&#45;D -->
<g id="edge5" class="edge">
<title>B&#45;&#45;D</title>
<path fill="none" stroke="black" d="M66.71,-267.26C56.63,-253.84 42.97,-233.31 36.25,-213 26.38,-183.15 25.57,-146.11 26.12,-124.8"/>
<text text-anchor="middle" x="40.38" y="-189.95" font-family="Times New Roman,serif" font-size="14.00">3</text>
</g>
<!-- E -->
<g id="node5" class="node">
<title>E</title>
<ellipse fill="none" stroke="black" cx="90" cy="-18" rx="27" ry="18"/>
<text text-anchor="middle" x="90" y="-12.95" font-family="Times New Roman,serif" font-size="14.00">E</text>
</g>
<!-- B&#45;&#45;E -->
<g id="edge6" class="edge">
<title>B&#45;&#45;E</title>
<path fill="none" stroke="black" d="M89.92,-266.81C98.65,-253.26 110.18,-232.8 115,-213 130.67,-148.66 107.96,-69.78 96.25,-35.84"/>
<text text-anchor="middle" x="124.38" y="-145.7" font-family="Times New Roman,serif" font-size="14.00">7</text>
</g>
<!-- C&#45;&#45;D -->
<g id="edge7" class="edge">
<title>C&#45;&#45;D</title>
<path fill="none" stroke="black" d="M69.22,-177.73C59.92,-162.27 46.02,-139.14 36.74,-123.7"/>
<text text-anchor="middle" x="61.38" y="-145.7" font-family="Times New Roman,serif" font-size="14.00">8</text>
</g>
<!-- C&#45;&#45;E -->
<g id="edge8" class="edge">
<title>C&#45;&#45;E</title>
<path fill="none" stroke="black" d="M80.09,-176.58C82.2,-143.04 86.8,-69.84 88.91,-36.35"/>
<text text-anchor="middle" x="89.38" y="-101.45" font-family="Times New Roman,serif" font-size="14.00">4</text>
</g>
<!-- D&#45;&#45;E -->
<g id="edge9" class="edge">
<title>D&#45;&#45;E</title>
<path fill="none" stroke="black" d="M38.26,-90.04C49.66,-74.39 67.18,-50.33 78.62,-34.62"/>
<text text-anchor="middle" x="68.38" y="-57.2" font-family="Times New Roman,serif" font-size="14.00">9</text>
</g>
</g>
</svg>
