<?xml version="1.0" encoding="UTF-8" standalone="no"?>
<!DOCTYPE svg PUBLIC "-//W3C//DTD SVG 1.1//EN"
 "http://www.w3.org/Graphics/SVG/1.1/DTD/svg11.dtd">
<!-- Generated by graphviz version 10.0.1 (0)
 -->
<!-- Title: Tree Pages: 1 -->
<svg width="242pt" height="260pt"
 viewBox="0.00 0.00 242.00 260.00" xmlns="http://www.w3.org/2000/svg" xmlns:xlink="http://www.w3.org/1999/xlink">
<g id="graph0" class="graph" transform="scale(1 1) rotate(0) translate(4 256)">
<title>Tree</title>
<polygon fill="white" stroke="none" points="-4,4 -4,-256 238,-256 238,4 -4,4"/>
<!-- Node_1 -->
<g id="node1" class="node">
<title>Node_1</title>
<ellipse fill="lightblue" stroke="black" cx="171" cy="-234" rx="27" ry="18"/>
<text text-anchor="middle" x="171" y="-228.95" font-family="Times New Roman,serif" font-size="14.00">28</text>
</g>
<!-- Node_2 -->
<g id="node2" class="node">
<title>Node_2</title>
<ellipse fill="lightblue" stroke="black" cx="135" cy="-162" rx="27" ry="18"/>
<text text-anchor="middle" x="135" y="-156.95" font-family="Times New Roman,serif" font-size="14.00">20</text>
</g>
<!-- Node_1&#45;&gt;Node_2 -->
<g id="edge1" class="edge">
<title>Node_1&#45;&gt;Node_2</title>
<path fill="none" stroke="black" d="M162.65,-216.76C158.42,-208.55 153.19,-198.37 148.42,-189.09"/>
<polygon fill="black" stroke="black" points="151.68,-187.79 144,-180.49 145.46,-190.99 151.68,-187.79"/>
</g>
<!-- Node_7 -->
<g id="node7" class="node">
<title>Node_7</title>
<ellipse fill="lightblue" stroke="black" cx="207" cy="-162" rx="27" ry="18"/>
<text text-anchor="middle" x="207" y="-156.95" font-family="Times New Roman,serif" font-size="14.00">30</text>
</g>
<!-- Node_1&#45;&gt;Node_7 -->
<g id="edge6" class="edge">
<title>Node_1&#45;&gt;Node_7</title>
<path fill="none" stroke="black" d="M179.35,-216.76C183.58,-208.55 188.81,-198.37 193.58,-189.09"/>
<polygon fill="black" stroke="black" points="196.54,-190.99 198,-180.49 190.32,-187.79 196.54,-190.99"/>
</g>
<!-- Node_3 -->
<g id="node3" class="node">
<title>Node_3</title>
<ellipse fill="lightblue" stroke="black" cx="63" cy="-90" rx="27" ry="18"/>
<text text-anchor="middle" x="63" y="-84.95" font-family="Times New Roman,serif" font-size="14.00">15</text>
</g>
<!-- Node_2&#45;&gt;Node_3 -->
<g id="edge2" class="edge">
<title>Node_2&#45;&gt;Node_3</title>
<path fill="none" stroke="black" d="M120.08,-146.5C110.23,-136.92 97.14,-124.19 85.97,-113.34"/>
<polygon fill="black" stroke="black" points="88.59,-111 78.98,-106.54 83.71,-116.02 88.59,-111"/>
</g>
<!-- Node_6 -->
<g id="node6" class="node">
<title>Node_6</title>
<ellipse fill="lightblue" stroke="black" cx="135" cy="-90" rx="27" ry="18"/>
<text text-anchor="middle" x="135" y="-84.95" font-family="Times New Roman,serif" font-size="14.00">22</text>
</g>
<!-- Node_2&#45;&gt;Node_6 -->
<g id="edge5" class="edge">
<title>Node_2&#45;&gt;Node_6</title>
<path fill="none" stroke="black" d="M135,-143.7C135,-136.41 135,-127.73 135,-119.54"/>
<polygon fill="black" stroke="black" points="138.5,-119.62 135,-109.62 131.5,-119.62 138.5,-119.62"/>
</g>
<!-- Node_4 -->
<g id="node4" class="node">
<title>Node_4</title>
<ellipse fill="lightblue" stroke="black" cx="27" cy="-18" rx="27" ry="18"/>
<text text-anchor="middle" x="27" y="-12.95" font-family="Times New Roman,serif" font-size="14.00">10</text>
</g>
<!-- Node_3&#45;&gt;Node_4 -->
<g id="edge3" class="edge">
<title>Node_3&#45;&gt;Node_4</title>
<path fill="none" stroke="black" d="M54.65,-72.76C50.42,-64.55 45.19,-54.37 40.42,-45.09"/>
<polygon fill="black" stroke="black" points="43.68,-43.79 36,-36.49 37.46,-46.99 43.68,-43.79"/>
</g>
<!-- Node_5 -->
<g id="node5" class="node">
<title>Node_5</title>
<ellipse fill="lightblue" stroke="black" cx="99" cy="-18" rx="27" ry="18"/>
<text text-anchor="middle" x="99" y="-12.95" font-family="Times New Roman,serif" font-size="14.00">18</text>
</g>
<!-- Node_3&#45;&gt;Node_5 -->
<g id="edge4" class="edge">
<title>Node_3&#45;&gt;Node_5</title>
<path fill="none" stroke="black" d="M71.35,-72.76C75.58,-64.55 80.81,-54.37 85.58,-45.09"/>
<polygon fill="black" stroke="black" points="88.54,-46.99 90,-36.49 82.32,-43.79 88.54,-46.99"/>
</g>
<!-- Node_8 -->
<g id="node8" class="node">
<title>Node_8</title>
<ellipse fill="lightblue" stroke="black" cx="207" cy="-90" rx="27" ry="18"/>
<text text-anchor="middle" x="207" y="-84.95" font-family="Times New Roman,serif" font-size="14.00">35</text>
</g>
<!-- Node_7&#45;&gt;Node_8 -->
<g id="edge7" class="edge">
<title>Node_7&#45;&gt;Node_8</title>
<path fill="none" stroke="black" d="M207,-143.7C207,-136.41 207,-127.73 207,-119.54"/>
<polygon fill="black" stroke="black" points="210.5,-119.62 207,-109.62 203.5,-119.62 210.5,-119.62"/>
</g>
</g>
</svg>
